<!-- Generated by IcoMoon.io -->
<svg version="1.1" xmlns="http://www.w3.org/2000/svg" width="32" height="32" viewBox="0 0 32 32">
<path fill="#75d281" d="M0 0h32v32h-32z"></path>
<path fill="#030a06" d="M15.511 3c-0.128 0-0.263 0-0.39 0.015-1.469 0.123-2.819 0.747-3.78 1.884-1.047 1.238-1.3 2.542-1.288 4.117l-2.8-0.004c-0.125 0-0.254-0.004-0.386-0.008-0.365-0.010-0.744-0.020-1.086 0.042-0.211 0.040-0.394 0.143-0.532 0.29l-0 0.001c-0.254 0.264-0.26 0.598-0.244 0.94 0.026 0.54 0.073 1.080 0.12 1.62 0.024 0.294 0.050 0.587 0.071 0.88l0.465 6.004 0.226 2.9c0.011 0.143 0.020 0.287 0.029 0.432 0.032 0.52 0.064 1.046 0.201 1.542 0.459 1.61 1.721 2.844 3.314 3.256l0.032 0.007c0.628 0.151 1.357 0.134 2.042 0.118 0.204-0.005 0.404-0.010 0.596-0.010h7.060c0.18 0 0.365 0.005 0.552 0.010 0.608 0.014 1.242 0.030 1.81-0.103 0.859-0.21 1.601-0.63 2.193-1.204l-0.001 0.001c0.543-0.539 0.976-1.258 1.166-2.001 0.145-0.569 0.181-1.192 0.217-1.797 0.010-0.195 0.022-0.388 0.037-0.577l0.309-3.976 0.385-4.882c0.029-0.375 0.053-0.626 0.080-0.877l-0.013 0.147c0.052-0.529 0.105-1.062 0.104-1.585 0-0.322-0.069-0.622-0.3-0.861-0.158-0.165-0.417-0.245-0.637-0.281-0.329-0.054-0.69-0.044-1.039-0.035-0.129 0.003-0.256 0.007-0.38 0.007-0.88-0.002-1.761 0.001-2.642 0.010h-0.037c0.020-1.687-0.355-3.135-1.568-4.369-0.979-1.014-2.349-1.645-3.866-1.652h-0.020zM20.847 12.623l0.047 0.003c-0.001-0.002 0.001 0.001 0.002 0.004l0.002 0.006 0.001 0.003 0.006 0.014 0.002 0.004c0.009 0.020 0.010 0.023 0.010 0.055-0.015 2.069-0.57 4.733-2.037 6.248-1.36 1.403-3.471 2.091-5.397 2.13 0.897-1.688 2.338-3.287 3.825-4.475 0.23-0.184 0.47-0.35 0.711-0.516 0.155-0.107 0.31-0.214 0.463-0.326 0.148-0.108 0.347-0.255 0.368-0.453 0.019-0.183-0.078-0.324-0.192-0.454-0.16-0.093-0.277-0.132-0.46-0.078-0.259 0.076-0.52 0.268-0.756 0.44-0.062 0.047-0.123 0.091-0.181 0.132-1.902 1.358-3.459 3.074-4.597 5.061l-0.041 0.077c-0.039-1.655 0.338-3.040 1.353-4.372 1.523-1.997 4.438-3.171 6.87-3.503zM6.050 10.048h18.91c-0.067 0.637-0.11 1.28-0.154 1.921-0.024 0.358-0.048 0.715-0.076 1.071l-0.51 6.381-0.19 2.352-0.024 0.307c-0.030 0.406-0.061 0.815-0.14 1.212-0.090 0.423-0.245 0.797-0.456 1.132l0.008-0.014c-0.081 0.123-0.17 0.242-0.264 0.356-0.549 0.655-1.449 1.143-2.303 1.208-0.466 0.035-0.945 0.026-1.42 0.018-0.204-0.004-0.41-0.008-0.611-0.008h-7.046c-0.15 0-0.304 0.003-0.458 0.007-0.474 0.010-0.959 0.020-1.414-0.059-0.624-0.112-1.172-0.381-1.618-0.765l0.004 0.004c-0.539-0.456-0.936-1.065-1.127-1.758l-0.006-0.025c-0.128-0.462-0.16-0.953-0.191-1.436-0.012-0.209-0.021-0.334-0.031-0.459l0.006 0.097-0.186-2.392-0.704-9.15zM21.267 11.515l-0.014 0.001c-2.871 0.332-6.14 1.513-7.995 3.838-1.192 1.495-1.844 3.439-1.629 5.353 0.047 0.42 0.143 0.822 0.28 1.222l-0.056 0.142c-0.236 0.592-0.783 1.968-0.593 2.375 0.060 0.114 0.162 0.199 0.286 0.234l0.003 0.001c0.050 0.016 0.1 0.025 0.153 0.031 0.16-0.026 0.31-0.060 0.406-0.203 0.104-0.155 0.21-0.527 0.301-0.845 0.044-0.151 0.084-0.29 0.118-0.388 0.118-0.335 0.252-0.665 0.386-0.994l0.001-0.004 0.047-0.115c2.368 0.007 4.896-0.734 6.608-2.424 1.916-1.89 2.398-4.938 2.402-7.517 0-0.203-0.014-0.445-0.163-0.6-0.091-0.096-0.229-0.125-0.357-0.122-0.069 0.003-0.132 0.008-0.195 0.016l0.011-0.001zM15.281 4.035c0.082-0.006 0.178-0.010 0.275-0.010h0c1.125 0.007 2.25 0.51 3.040 1.302 1.076 1.080 1.297 2.224 1.299 3.689l-8.756 0.004c-0.035-1.26 0.168-2.41 0.994-3.403 0.793-0.955 1.925-1.473 3.148-1.583z"></path>
</svg>
