<svg xmlns="http://www.w3.org/2000/svg" aria-hidden="true" style="position:absolute;width:0;height:0;overflow:hidden">
  <defs>
    <symbol id="icon-Price-15" viewBox="0 0 32 32">
      <path d="M11.172 19.184c0 1.118-.36 2.074-1.081 2.869-.706.794-1.692 1.309-2.957 1.545v3.443H4.795v-3.31c-1.927-.147-3.502-.831-4.723-2.052l1.633-1.766c1.074.986 2.31 1.479 3.708 1.479.765 0 1.376-.177 1.832-.53.471-.353.706-.846.706-1.479 0-.397-.081-.728-.243-.993s-.441-.5-.839-.706c-.397-.206-.978-.427-1.743-.662-1.589-.5-2.729-1.096-3.421-1.788C1.028 14.543.69 13.645.69 12.542c0-1.089.375-2.001 1.126-2.737s1.743-1.184 2.979-1.346V5.215h2.339v3.266c1.368.206 2.575.794 3.619 1.766L9.252 11.99c-.942-.839-2.016-1.258-3.222-1.258-.647 0-1.17.14-1.567.419-.383.265-.574.655-.574 1.17 0 .353.081.64.243.861s.441.434.839.64c.412.206 1.03.434 1.854.684 1.471.456 2.56 1.03 3.266 1.721.721.691 1.081 1.677 1.081 2.957zm7.983-10.549V23.51h-3.068V11.725l-3.266 2.008-1.368-2.119 4.943-2.979h2.759zm11.808 2.273h-5.495v3.421a5.244 5.244 0 0 1 2.251-.508c.824 0 1.552.191 2.185.574.647.383 1.155.942 1.523 1.677.368.721.552 1.574.552 2.56 0 1.03-.235 1.942-.706 2.737-.471.78-1.14 1.39-2.008 1.832-.853.441-1.846.662-2.979.662-1.913 0-3.516-.721-4.811-2.163l1.766-1.655c.824.942 1.81 1.412 2.957 1.412.809 0 1.434-.243 1.876-.728.456-.486.684-1.184.684-2.097 0-1.751-.75-2.626-2.251-2.626-.324 0-.633.044-.927.132a3.988 3.988 0 0 0-.927.397h-2.185V8.634h8.872l-.375 2.273z"/>
    </symbol>
    <symbol id="icon-Price-35" viewBox="0 0 32 32">
      <path d="M10.526 18.978c0 1.046-.337 1.941-1.012 2.684-.661.743-1.583 1.225-2.766 1.445v3.221H4.56v-3.097c-1.803-.138-3.276-.778-4.418-1.92l1.528-1.652c1.005.922 2.161 1.383 3.468 1.383.716 0 1.287-.165 1.714-.495.44-.33.661-.791.661-1.383 0-.372-.076-.681-.227-.929s-.413-.468-.785-.661c-.372-.193-.915-.399-1.631-.619-1.486-.468-2.553-1.025-3.2-1.672-.633-.647-.95-1.486-.95-2.519 0-1.018.351-1.872 1.053-2.56S3.404 9.096 4.56 8.945V5.91h2.188v3.055c1.28.193 2.409.743 3.386 1.652L8.73 12.248c-.881-.785-1.886-1.177-3.014-1.177-.606 0-1.094.131-1.466.392-.358.248-.537.612-.537 1.094 0 .33.076.599.227.805s.413.406.785.599c.385.193.963.406 1.734.64 1.376.427 2.395.963 3.055 1.61.674.647 1.012 1.569 1.012 2.766zm5.449-10.137c.95 0 1.762.158 2.436.475.688.303 1.204.723 1.548 1.259.358.537.537 1.136.537 1.796 0 .84-.241 1.542-.723 2.106-.482.551-1.149.943-2.003 1.177.936.096 1.7.434 2.292 1.012s.888 1.383.888 2.415c0 .798-.206 1.521-.619 2.168-.399.647-.991 1.163-1.775 1.548-.785.372-1.714.557-2.787.557-1.968 0-3.51-.688-4.625-2.065l1.59-1.528c.468.468.929.805 1.383 1.012s.95.31 1.486.31c.716 0 1.28-.193 1.693-.578.427-.385.64-.922.64-1.61 0-.743-.2-1.28-.599-1.61s-.998-.495-1.796-.495h-1.135l.351-2.065h.764c.647 0 1.163-.172 1.548-.516s.578-.826.578-1.445c0-.537-.179-.957-.537-1.259-.344-.303-.819-.454-1.425-.454-.523 0-1.005.096-1.445.289s-.874.495-1.301.908l-1.466-1.59c1.28-1.211 2.78-1.817 4.501-1.817zm14.981 2.395h-5.141v3.2a4.892 4.892 0 0 1 2.106-.475c.771 0 1.452.179 2.044.537.606.358 1.08.881 1.425 1.569.344.674.516 1.473.516 2.395 0 .963-.22 1.817-.661 2.56-.44.729-1.067 1.301-1.879 1.714-.798.413-1.727.619-2.787.619-1.789 0-3.29-.674-4.501-2.023l1.652-1.548c.771.881 1.693 1.321 2.766 1.321.757 0 1.342-.227 1.755-.681.427-.454.64-1.108.64-1.961 0-1.638-.702-2.457-2.106-2.457-.303 0-.592.041-.867.124a3.713 3.713 0 0 0-.867.372h-2.044V9.111h8.299l-.351 2.126z"/>
    </symbol>
    <symbol id="icon-Price-60" viewBox="0 0 32 32">
      <path d="M9.958 18.798c0 .983-.317 1.823-.95 2.521-.621.698-1.487 1.151-2.599 1.358v3.025H4.353v-2.909c-1.694-.129-3.077-.731-4.15-1.804l1.435-1.552c.944.866 2.03 1.299 3.258 1.299.672 0 1.209-.155 1.61-.465.414-.31.621-.743.621-1.299 0-.349-.071-.64-.213-.873s-.388-.44-.737-.621-.86-.375-1.532-.582c-1.396-.44-2.398-.963-3.006-1.571-.595-.608-.892-1.396-.892-2.366 0-.957.33-1.758.989-2.405s1.532-1.041 2.618-1.183V6.52H6.41v2.87c1.202.181 2.263.698 3.181 1.552l-1.319 1.532c-.827-.737-1.771-1.105-2.832-1.105-.569 0-1.028.123-1.377.368-.336.233-.504.575-.504 1.028 0 .31.071.562.213.756s.388.381.737.562c.362.181.905.381 1.629.601 1.293.401 2.25.905 2.87 1.513.634.608.95 1.474.95 2.599zm7.077-4.946c.711 0 1.345.168 1.901.504.569.336 1.015.827 1.338 1.474.323.634.485 1.403.485 2.308s-.194 1.72-.582 2.444c-.375.724-.912 1.293-1.61 1.707s-1.5.621-2.405.621c-1.642 0-2.857-.556-3.646-1.668-.789-1.125-1.183-2.676-1.183-4.655 0-1.461.22-2.741.659-3.84.452-1.112 1.092-1.965 1.92-2.56.827-.608 1.804-.912 2.929-.912s2.095.278 2.909.834l-1.009 1.687c-.595-.349-1.209-.524-1.842-.524-.789 0-1.422.343-1.901 1.028s-.75 1.649-.815 2.89c.776-.892 1.726-1.338 2.851-1.338zm-.853 7.04c.595 0 1.041-.239 1.338-.718.31-.478.465-1.144.465-1.998s-.142-1.461-.427-1.823c-.271-.375-.685-.562-1.241-.562-.789 0-1.5.401-2.133 1.202.026 1.396.187 2.398.485 3.006.31.595.815.892 1.513.892zM26.9 9.275c1.577 0 2.773.588 3.588 1.765.815 1.164 1.222 2.844 1.222 5.042s-.414 3.885-1.241 5.062c-.815 1.177-2.004 1.765-3.569 1.765s-2.754-.588-3.569-1.765-1.222-2.864-1.222-5.062.407-3.879 1.222-5.042c.815-1.177 2.004-1.765 3.569-1.765zm0 2.056c-.465 0-.84.155-1.125.465-.284.297-.498.795-.64 1.493-.129.685-.194 1.616-.194 2.793s.065 2.114.194 2.812c.142.685.356 1.183.64 1.493.285.297.659.446 1.125.446s.84-.149 1.125-.446c.285-.297.498-.789.64-1.474.142-.698.213-1.642.213-2.831 0-1.202-.071-2.146-.213-2.832-.142-.698-.355-1.19-.64-1.474-.284-.297-.659-.446-1.125-.446z"/>
    </symbol>
    <symbol id="icon-Price-22" viewBox="0 0 32 32">
      <path d="M10.818 18.979c0 1.046-.337 1.941-1.012 2.684-.661.743-1.583 1.225-2.766 1.445v3.221H4.852v-3.097c-1.803-.138-3.276-.778-4.418-1.92l1.528-1.652c1.005.922 2.161 1.383 3.468 1.383.716 0 1.287-.165 1.714-.495.44-.33.661-.791.661-1.383 0-.372-.076-.681-.227-.929s-.413-.468-.785-.661c-.372-.193-.915-.399-1.631-.619-1.486-.468-2.553-1.025-3.2-1.672-.633-.647-.95-1.486-.95-2.519 0-1.018.351-1.872 1.053-2.56s1.631-1.108 2.787-1.259V5.911H7.04v3.055c1.28.193 2.409.743 3.386 1.652l-1.404 1.631c-.881-.785-1.886-1.177-3.014-1.177-.606 0-1.094.131-1.466.392-.358.248-.537.612-.537 1.094 0 .33.076.599.227.805s.413.406.785.599c.385.193.963.406 1.734.64 1.376.427 2.395.963 3.055 1.61.674.647 1.012 1.569 1.012 2.766zm5.268-10.137c.963 0 1.796.179 2.498.537.702.344 1.232.819 1.59 1.425.372.592.557 1.252.557 1.982 0 .757-.165 1.486-.495 2.188-.317.702-.867 1.493-1.652 2.374-.771.881-1.899 2.016-3.386 3.406h5.843l-.33 2.271h-8.857v-2.126c1.734-1.734 2.987-3.028 3.757-3.881s1.314-1.576 1.631-2.168a3.804 3.804 0 0 0 .475-1.817c0-.592-.172-1.06-.516-1.404s-.805-.516-1.383-.516c-.509 0-.963.117-1.363.351-.399.22-.819.592-1.259 1.115l-1.755-1.404c1.184-1.555 2.732-2.333 4.645-2.333zm10.565 0c.963 0 1.796.179 2.498.537.702.344 1.232.819 1.59 1.425.372.592.557 1.252.557 1.982 0 .757-.165 1.486-.495 2.188-.317.702-.867 1.493-1.652 2.374-.771.881-1.899 2.016-3.386 3.406h5.843l-.33 2.271h-8.857v-2.126c1.734-1.734 2.987-3.028 3.757-3.881s1.314-1.576 1.631-2.168a3.804 3.804 0 0 0 .475-1.817c0-.592-.172-1.06-.516-1.404s-.805-.516-1.383-.516c-.509 0-.963.117-1.363.351-.399.22-.819.592-1.259 1.115l-1.755-1.404c1.184-1.555 2.732-2.333 4.645-2.333z"/>
    </symbol>
    <symbol id="icon-Price-20" viewBox="0 0 32 32">
      <path d="M10.479 18.798c0 .983-.317 1.823-.95 2.521-.621.698-1.487 1.151-2.599 1.358v3.025H4.874v-2.909c-1.694-.129-3.077-.73-4.15-1.804l1.435-1.552c.944.866 2.03 1.299 3.258 1.299.672 0 1.209-.155 1.61-.465.414-.31.621-.743.621-1.299 0-.349-.071-.64-.213-.873s-.388-.44-.737-.621-.86-.375-1.532-.582c-1.396-.44-2.398-.963-3.006-1.571-.595-.608-.892-1.396-.892-2.366 0-.957.33-1.758.989-2.405s1.532-1.041 2.618-1.183V6.52h2.056v2.87c1.202.181 2.263.698 3.181 1.552l-1.319 1.532c-.827-.737-1.771-1.105-2.832-1.105-.569 0-1.028.123-1.377.368-.336.233-.504.575-.504 1.028 0 .31.071.562.213.756s.388.381.737.562c.362.181.905.381 1.629.601 1.293.401 2.25.905 2.87 1.513.634.608.95 1.474.95 2.599zm4.948-9.522c.905 0 1.687.168 2.347.504.659.323 1.157.769 1.493 1.338.349.556.524 1.177.524 1.862 0 .711-.155 1.396-.465 2.056-.297.659-.815 1.403-1.552 2.23-.724.828-1.784 1.894-3.181 3.2h5.489l-.31 2.133h-8.32v-1.998c1.629-1.629 2.806-2.844 3.53-3.646s1.235-1.48 1.532-2.036a3.584 3.584 0 0 0 .446-1.707c0-.556-.162-.996-.485-1.319s-.756-.485-1.299-.485c-.478 0-.905.11-1.28.33-.375.207-.769.556-1.183 1.047l-1.649-1.319c1.112-1.461 2.566-2.191 4.364-2.191zm10.952 0c1.577 0 2.773.588 3.588 1.765.815 1.164 1.222 2.844 1.222 5.042s-.414 3.885-1.241 5.062c-.815 1.177-2.004 1.765-3.569 1.765s-2.754-.588-3.569-1.765-1.222-2.864-1.222-5.062.407-3.879 1.222-5.042c.815-1.177 2.004-1.765 3.569-1.765zm0 2.055c-.465 0-.84.155-1.125.465-.284.297-.498.795-.64 1.493-.129.685-.194 1.616-.194 2.793s.065 2.114.194 2.812c.142.685.356 1.183.64 1.493.285.297.659.446 1.125.446s.84-.149 1.125-.446c.285-.297.498-.789.64-1.474.142-.698.213-1.642.213-2.831 0-1.202-.071-2.146-.213-2.832-.142-.698-.355-1.19-.64-1.474-.284-.297-.659-.446-1.125-.446z"/>
    </symbol>
    <symbol id="icon-Price-45" viewBox="0 0 32 32">
      <path d="M10.545 18.798c0 .983-.317 1.823-.95 2.521-.621.698-1.487 1.151-2.599 1.358v3.025H4.94v-2.909c-1.694-.129-3.077-.73-4.15-1.804l1.435-1.552c.944.866 2.03 1.299 3.258 1.299.672 0 1.209-.155 1.61-.465.414-.31.621-.743.621-1.299 0-.349-.071-.64-.213-.873s-.388-.44-.737-.621-.86-.375-1.532-.582c-1.396-.44-2.398-.963-3.006-1.571-.595-.608-.892-1.396-.892-2.366 0-.957.33-1.758.989-2.405s1.532-1.041 2.618-1.183V6.52h2.056v2.87c1.202.181 2.263.698 3.181 1.552l-1.319 1.532c-.827-.737-1.771-1.105-2.832-1.105-.569 0-1.028.123-1.377.368-.336.233-.504.575-.504 1.028 0 .31.071.562.213.756s.388.381.737.562c.362.181.905.381 1.629.601 1.293.401 2.25.905 2.87 1.513.633.608.95 1.474.95 2.599zm10.917-1.202v2.095H19.93V22.6h-2.676l-.019-2.909h-5.527v-1.862l3.762-8.591 2.327.873-3.239 7.486h2.715l.291-3.2h2.366v3.2h1.532zm8.9-6.071h-4.829v3.006a4.61 4.61 0 0 1 1.978-.446c.724 0 1.364.168 1.92.504.569.336 1.015.827 1.338 1.474.323.634.485 1.383.485 2.25 0 .905-.207 1.707-.621 2.405-.414.685-1.002 1.222-1.765 1.61-.75.388-1.623.582-2.618.582-1.681 0-3.09-.634-4.228-1.901l1.552-1.455c.724.828 1.59 1.241 2.599 1.241.711 0 1.261-.213 1.648-.64.401-.427.601-1.041.601-1.842 0-1.539-.659-2.308-1.978-2.308-.284 0-.556.039-.815.116a3.525 3.525 0 0 0-.815.349h-1.92V9.527h7.796l-.33 1.998z"/>
    </symbol>
    <symbol id="icon-Price-30" viewBox="0 0 32 32">
      <path d="M10.356 18.798c0 .983-.317 1.823-.95 2.521-.621.698-1.487 1.151-2.599 1.358v3.025H4.751v-2.909c-1.694-.129-3.077-.73-4.15-1.804l1.435-1.552c.944.866 2.03 1.299 3.258 1.299.672 0 1.209-.155 1.61-.465.414-.31.621-.743.621-1.299 0-.349-.071-.64-.213-.873s-.388-.44-.737-.621-.86-.375-1.532-.582c-1.396-.44-2.398-.963-3.006-1.571-.595-.608-.892-1.396-.892-2.366 0-.957.33-1.758.989-2.405s1.532-1.041 2.618-1.183V6.52h2.056v2.87c1.202.181 2.263.698 3.181 1.552L8.67 12.474c-.827-.737-1.771-1.105-2.832-1.105-.569 0-1.028.123-1.377.368-.336.233-.504.575-.504 1.028 0 .31.071.562.213.756s.388.381.737.562c.362.181.905.381 1.629.601 1.293.401 2.25.905 2.87 1.513.634.608.95 1.474.95 2.599zm5.118-9.522c.892 0 1.655.149 2.289.446.646.284 1.131.679 1.455 1.183.336.504.504 1.067.504 1.687 0 .789-.226 1.448-.679 1.978-.453.517-1.08.886-1.881 1.105.879.091 1.597.407 2.153.95s.834 1.299.834 2.269c0 .75-.194 1.429-.582 2.036-.375.608-.931 1.093-1.668 1.455-.737.349-1.61.524-2.618.524-1.849 0-3.297-.646-4.344-1.939l1.493-1.435c.44.44.873.756 1.299.95s.892.291 1.396.291c.672 0 1.202-.181 1.59-.543.401-.362.601-.866.601-1.513 0-.698-.187-1.202-.562-1.513s-.937-.465-1.687-.465H14l.33-1.939h.718c.608 0 1.093-.162 1.455-.485s.543-.776.543-1.358c0-.504-.168-.899-.504-1.183-.323-.284-.769-.427-1.338-.427-.491 0-.944.091-1.358.271s-.821.465-1.222.853l-1.377-1.493c1.202-1.138 2.612-1.707 4.228-1.707zm11.029 0c1.577 0 2.773.588 3.588 1.765.815 1.164 1.222 2.844 1.222 5.042s-.414 3.885-1.241 5.062c-.815 1.177-2.004 1.765-3.569 1.765s-2.754-.588-3.569-1.765-1.222-2.864-1.222-5.062.407-3.879 1.222-5.042c.815-1.177 2.004-1.765 3.569-1.765zm0 2.055c-.465 0-.84.155-1.125.465-.285.297-.498.795-.64 1.493-.129.685-.194 1.616-.194 2.793s.065 2.114.194 2.812c.142.685.355 1.183.64 1.493.284.297.659.446 1.125.446s.84-.149 1.125-.446c.284-.297.498-.789.64-1.474.142-.698.213-1.642.213-2.831 0-1.202-.071-2.146-.213-2.832-.142-.698-.356-1.19-.64-1.474-.285-.297-.659-.446-1.125-.446z"/>
    </symbol>
    <symbol id="icon-Price-25" viewBox="0 0 32 32">
      <path d="M10.657 18.978c0 1.046-.337 1.941-1.012 2.684-.661.743-1.583 1.225-2.766 1.445v3.221H4.691v-3.097c-1.803-.138-3.276-.778-4.418-1.92l1.528-1.652c1.005.922 2.161 1.383 3.468 1.383.716 0 1.287-.165 1.714-.495.44-.33.661-.791.661-1.383 0-.372-.076-.681-.227-.929s-.413-.468-.785-.661c-.372-.193-.915-.399-1.631-.619-1.486-.468-2.553-1.025-3.2-1.672-.633-.647-.95-1.486-.95-2.519 0-1.018.351-1.872 1.053-2.56s1.631-1.108 2.787-1.259V5.91h2.188v3.056c1.28.193 2.409.743 3.386 1.652l-1.404 1.631c-.881-.785-1.886-1.177-3.014-1.177-.606 0-1.094.131-1.466.392-.358.248-.537.612-.537 1.094 0 .33.076.599.227.805s.413.406.785.599c.385.193.963.406 1.734.64 1.376.427 2.395.963 3.055 1.61.674.647 1.012 1.569 1.012 2.766zm5.268-10.136c.964 0 1.796.179 2.498.537.702.344 1.232.819 1.59 1.425.372.592.557 1.252.557 1.982 0 .757-.165 1.486-.495 2.188-.317.702-.867 1.493-1.652 2.374-.771.881-1.899 2.016-3.386 3.406h5.843l-.33 2.271h-8.857v-2.126c1.734-1.734 2.987-3.028 3.757-3.881s1.314-1.576 1.631-2.168a3.804 3.804 0 0 0 .475-1.817c0-.592-.172-1.06-.516-1.404s-.805-.516-1.383-.516c-.509 0-.963.117-1.363.351-.399.22-.819.592-1.259 1.115l-1.755-1.404c1.184-1.555 2.732-2.333 4.645-2.333zm14.9 2.395h-5.141v3.2a4.892 4.892 0 0 1 2.106-.475c.771 0 1.452.179 2.044.537.606.358 1.08.881 1.425 1.569.344.674.516 1.473.516 2.395 0 .963-.22 1.817-.661 2.56-.44.73-1.067 1.301-1.879 1.714-.798.413-1.727.619-2.787.619-1.789 0-3.29-.674-4.501-2.023l1.652-1.548c.771.881 1.693 1.321 2.766 1.321.757 0 1.342-.227 1.755-.681.427-.454.64-1.108.64-1.961 0-1.638-.702-2.457-2.106-2.457-.303 0-.592.041-.867.124-.261.069-.55.193-.867.372h-2.044V9.112h8.299l-.351 2.126z"/>
    </symbol>
    <symbol id="icon-Instagram" viewBox="0 0 31 32">
      <path d="M15.513 6.319c3.109 0 3.477.014 4.699.068 1.137.05 1.75.241 2.159.4.541.209.931.464 1.336.868.409.409.659.796.873 1.337.159.409.35 1.027.4 2.159.055 1.227.068 1.595.068 4.7s-.014 3.477-.068 4.7c-.05 1.137-.241 1.75-.4 2.159a3.593 3.593 0 0 1-.868 1.336 3.658 3.658 0 0 1-1.336.873c-.409.159-1.028.35-2.159.4-1.227.055-1.595.068-4.7.068s-3.477-.014-4.7-.068c-1.137-.05-1.75-.241-2.159-.4a3.605 3.605 0 0 1-1.337-.868 3.658 3.658 0 0 1-.873-1.336c-.159-.409-.35-1.027-.4-2.159-.055-1.228-.068-1.595-.068-4.7s.014-3.477.068-4.7c.05-1.137.241-1.75.4-2.159.209-.541.464-.931.868-1.337a3.654 3.654 0 0 1 1.337-.873c.409-.159 1.027-.35 2.159-.4 1.222-.055 1.591-.068 4.7-.068h.001zm0-2.095c-3.159 0-3.554.014-4.795.068-1.236.055-2.086.255-2.822.541-.768.3-1.418.695-2.063 1.345a5.688 5.688 0 0 0-1.345 2.059c-.287.741-.487 1.586-.541 2.822-.055 1.246-.068 1.641-.068 4.799s.014 3.554.068 4.795c.055 1.236.255 2.086.541 2.822.3.768.695 1.418 1.345 2.063a5.681 5.681 0 0 0 2.059 1.341c.741.287 1.586.486 2.822.541 1.241.055 1.636.068 4.795.068s3.554-.014 4.795-.068c1.236-.055 2.086-.254 2.822-.541.763-.295 1.414-.695 2.059-1.341s1.046-1.295 1.341-2.059c.287-.741.486-1.586.541-2.822.055-1.241.068-1.636.068-4.795s-.014-3.554-.068-4.795c-.055-1.236-.255-2.086-.541-2.822a5.457 5.457 0 0 0-1.331-2.068 5.681 5.681 0 0 0-2.059-1.341c-.741-.287-1.586-.486-2.822-.541-1.245-.059-1.64-.073-4.799-.073l-.001.001z"/>
      <path d="M15.513 9.883c-3.299 0-5.977 2.677-5.977 5.977s2.677 5.977 5.977 5.977c3.3 0 5.977-2.677 5.977-5.977s-2.677-5.977-5.977-5.977zm0 9.853a3.877 3.877 0 1 1 0-7.755 3.877 3.877 0 0 1 0 7.755zm7.607-10.09a1.395 1.395 0 1 1-2.79 0 1.395 1.395 0 0 1 2.79 0z"/>
    </symbol>
    <symbol id="icon-linkedin" viewBox="0 0 32 32">
      <path d="M28.48.455H3.52a2.888 2.888 0 0 0-2.88 2.88v24.96a2.888 2.888 0 0 0 2.88 2.88h24.96a2.888 2.888 0 0 0 2.88-2.88V3.335a2.888 2.888 0 0 0-2.88-2.88zm-16.32 24.96H8.32v-13.44h3.84v13.44zm-1.92-15.36c-1.062 0-1.92-.858-1.92-1.92s.858-1.92 1.92-1.92c1.062 0 1.92.858 1.92 1.92s-.858 1.92-1.92 1.92zm15.36 15.36h-3.84v-7.68c0-1.062-.858-1.92-1.92-1.92s-1.92.858-1.92 1.92v7.68h-3.84v-13.44h3.84v2.382c.792-1.086 2.004-2.382 3.36-2.382 2.388 0 4.32 2.149 4.32 4.8v8.64z"/>
    </symbol>
    <symbol id="icon-youtube" viewBox="0 0 32 32">
      <path d="M30.618 8.525a3.821 3.821 0 0 0-2.685-2.691C25.547 5.179 16 5.168 16 5.168s-9.545-.011-11.933.616a3.901 3.901 0 0 0-2.691 2.709c-.629 2.386-.635 7.336-.635 7.336s-.006 4.974.619 7.336a3.818 3.818 0 0 0 2.686 2.69c2.411.655 11.931.666 11.931.666s9.547.011 11.933-.614a3.825 3.825 0 0 0 2.692-2.687c.631-2.385.635-7.333.635-7.333s.03-4.975-.62-7.362zM12.947 20.414l.008-9.143 7.934 4.579-7.942 4.564z"/>
    </symbol>
    <symbol id="icon-star" viewBox="0 0 32 32">
      <path d="M14.513 2.081c.55-1.306 2.423-1.306 2.973 0l3.246 7.71a1.61 1.61 0 0 0 1.358.975l8.426.667c1.428.113 2.006 1.873.919 2.793l-6.419 5.432a1.579 1.579 0 0 0-.519 1.577l1.961 8.123c.332 1.376-1.183 2.464-2.405 1.727l-7.214-4.353a1.626 1.626 0 0 0-1.678 0l-7.214 4.353c-1.222.737-2.738-.35-2.405-1.727l1.961-8.123c.14-.58-.06-1.189-.519-1.577l-6.42-5.432c-1.088-.92-.509-2.68.919-2.793l8.426-.667a1.61 1.61 0 0 0 1.358-.975l3.246-7.71z"/>
    </symbol>
    <symbol id="icon-burger" viewBox="0 0 32 32">
      <path d="M.485 4.364h31.03v3.879H.485V4.364zm0 9.697h31.03v3.879H.485v-3.879zm0 9.697h31.03v3.879H.485v-3.879z"/>
    </symbol>
    <symbol id="icon-close" viewBox="0 0 32 32">
      <path d="M27.179.918 15.864 12.23 4.552.918.781 4.689l11.312 11.312L.781 27.313l3.771 3.771 11.312-11.312 11.315 11.312 3.771-3.771-11.312-11.312L30.95 4.689 27.179.918z"/>
    </symbol>
  </defs>
</svg>